<?xml version="1.0" encoding="UTF-8" standalone="no"?>
<!-- Created with Inkscape (http://www.inkscape.org/) -->
<svg xmlns:dc="http://purl.org/dc/elements/1.1/" xmlns:cc="http://creativecommons.org/ns#" xmlns:rdf="http://www.w3.org/1999/02/22-rdf-syntax-ns#" xmlns:svg="http://www.w3.org/2000/svg" xmlns="http://www.w3.org/2000/svg" xmlns:sodipodi="http://sodipodi.sourceforge.net/DTD/sodipodi-0.dtd" xmlns:inkscape="http://www.inkscape.org/namespaces/inkscape" width="599.56787" height="258.04877" id="svg5229" version="1.1" inkscape:version="0.48.4 r9939" sodipodi:docname="Neues Dokument 4">
  <defs id="defs5231">
    <clipPath clipPathUnits="userSpaceOnUse" id="clipPath3049">
      <path inkscape:connector-curvature="0" d="m 553.02,785.54 13.92,0 0,27.78 -13.92,0 0,-27.78 z" id="path3051"/>
    </clipPath>
    <clipPath clipPathUnits="userSpaceOnUse" id="clipPath3037">
      <path inkscape:connector-curvature="0" d="m 534.36,785.12 15.96,0 0,28.5 -15.96,0 0,-28.5 z" id="path3039"/>
    </clipPath>
  </defs>
  <sodipodi:namedview id="base" pagecolor="#ffffff" bordercolor="#666666" borderopacity="1.0" inkscape:pageopacity="0.0" inkscape:pageshadow="2" inkscape:zoom="0.35" inkscape:cx="704.06963" inkscape:cy="134.59694" inkscape:document-units="px" inkscape:current-layer="layer1" showgrid="false" fit-margin-top="0" fit-margin-left="0" fit-margin-right="0" fit-margin-bottom="0" inkscape:window-width="779" inkscape:window-height="423" inkscape:window-x="208" inkscape:window-y="208" inkscape:window-maximized="0"/>
  <metadata id="metadata5234">
    <rdf:RDF>
      <cc:Work rdf:about="">
        <dc:format>image/svg+xml</dc:format>
        <dc:type rdf:resource="http://purl.org/dc/dcmitype/StillImage"/>
        <dc:title/>
      </cc:Work>
    </rdf:RDF>
  </metadata>
  <g inkscape:label="Ebene 1" inkscape:groupmode="layer" id="layer1" transform="translate(-193.07322,-408.91036)">
    <g id="g5274" style="fill:#3b6e8f;fill-opacity:1" transform="matrix(7.274102,0,0,7.274102,-1211.361,-2565.5456)">
      <g transform="matrix(1.25,0,0,-1.25,193.07321,409.2854)" id="g3025" style="fill:#3b6e8f;fill-opacity:1">
        <path id="path3027" style="fill:#3b6e8f;fill-opacity:1;fill-rule:nonzero;stroke:none" d="m 0,0 13.86,0 0,-4.02 -8.76,0 0,-7.62 8.76,0 0,-4.08 -8.76,0 0,-11.94 -5.1,0 L 0,0" inkscape:connector-curvature="0"/>
      </g>
      <g transform="matrix(1.25,0,0,-1.25,220.14821,414.3104)" id="g3029" style="fill:#3b6e8f;fill-opacity:1">
        <path id="path3031" style="fill:#3b6e8f;fill-opacity:1;fill-rule:nonzero;stroke:none" d="m 0,0 -6.12,0 0,4.02 17.16,0 0,-4.02 -6,0 0,-23.64 -5.04,0 L 0,0" inkscape:connector-curvature="0"/>
      </g>
      <g id="g3033" transform="matrix(1.25,0,0,-1.25,-433.10179,1425.9354)" style="fill:#3b6e8f;fill-opacity:1">
        <g clip-path="url(#clipPath3037)" id="g3035" style="fill:#3b6e8f;fill-opacity:1">
          <g transform="translate(534.96,791)" id="g3041" style="fill:#3b6e8f;fill-opacity:1">
            <path id="path3043" style="fill:#3b6e8f;fill-opacity:1;fill-rule:nonzero;stroke:none" d="m 0,0 c 0.96,-0.6 3.18,-1.68 5.82,-1.68 2.22,0 4.2,1.2 4.2,4.02 0,1.98 -1.14,2.82 -3.6,4.2 -2.58,1.38 -2.58,1.38 -2.58,1.38 -2.7,1.5 -4.44,3.72 -4.44,7.26 0,4.98 4.02,7.5 8.64,7.5 2.94,0 4.98,-0.72 5.76,-1.02 -0.24,-4.2 -0.24,-4.2 -0.24,-4.2 -1.2,0.48 -2.82,1.2 -5.16,1.2 -2.52,0 -3.78,-1.38 -3.78,-3.24 0,-2.1 1.32,-2.88 2.88,-3.72 3,-1.68 3,-1.68 3,-1.68 3.18,-1.8 4.74,-3.54 4.74,-7.44 0,-5.64 -3.96,-8.34 -9.24,-8.34 -2.76,0 -4.92,0.42 -6.24,1.26" inkscape:connector-curvature="0"/>
          </g>
        </g>
      </g>
      <g id="g3045" transform="matrix(1.25,0,0,-1.25,-433.10179,1425.9354)" style="fill:#3b6e8f;fill-opacity:1">
        <g clip-path="url(#clipPath3049)" id="g3047" style="fill:#3b6e8f;fill-opacity:1">
          <g transform="translate(553.02,813.32)" id="g3053" style="fill:#3b6e8f;fill-opacity:1">
            <path id="path3055" style="fill:#3b6e8f;fill-opacity:1;fill-rule:nonzero;stroke:none" d="m 0,0 13.86,0 0,-4.02 -8.82,0 0,-7.68 8.82,0 0,-4.02 -8.82,0 0,-7.92 8.82,0 0,-4.02 L 0,-27.66 0,0" inkscape:connector-curvature="0"/>
          </g>
        </g>
      </g>
    </g>
  </g>
</svg>