<?xml version="1.0" encoding="UTF-8"?>
<!-- Generator: Adobe Illustrator 19.2.1, SVG Export Plug-In . SVG Version: 6.00 Build 0)  -->
<svg version="1.1" id="Layer_2" xmlns="http://www.w3.org/2000/svg" xmlns:xlink="http://www.w3.org/1999/xlink" x="0px" y="0px" viewBox="0 0 452 69" style="enable-background:new 0 0 452 69;" xml:space="preserve">
<style type="text/css">
	.st0{fill:#222222;}
	.st1{fill:url(#SVGID_1_);}
	.st2{fill:#D81222;}
</style>
<g>
	<g>
		<path class="st0" d="M56.1,65.4h-7.2V30.5h7.2V65.4z"/>
		<path class="st0" d="M83.2,41.1c1.7,1.4,2.5,3.7,2.5,6.9v17.4h-6.9V49.7c0-1.4-0.2-2.4-0.5-3.1c-0.7-1.3-1.9-2-3.8-2    c-2.3,0-3.8,1-4.7,2.9c-0.4,1-0.7,2.3-0.7,3.9v14h-6.7V39.7h6.5v3.8c0.9-1.3,1.7-2.3,2.4-2.9c1.4-1,3.1-1.6,5.3-1.6    C79.3,39,81.5,39.7,83.2,41.1z"/>
		<path class="st0" d="M88.9,44.7v-4.8h3.6v-7.2h6.7v7.2h4.2v4.8h-4.2v13.6c0,1.1,0.1,1.7,0.4,2s1.1,0.4,2.5,0.4c0.2,0,0.4,0,0.7,0    c0.2,0,0.5,0,0.7,0v5l-3.2,0.1c-3.2,0.1-5.4-0.4-6.5-1.7c-0.8-0.8-1.1-2-1.1-3.6V44.7H88.9z"/>
		<path class="st0" d="M124.1,40.2c1.8,0.8,3.3,2.1,4.5,3.8c1.1,1.5,1.7,3.3,2.1,5.3c0.2,1.2,0.3,2.9,0.2,5.1h-18.8    c0.1,2.6,1,4.4,2.7,5.4c1,0.6,2.3,1,3.7,1c1.5,0,2.8-0.4,3.7-1.2c0.5-0.4,1-1,1.4-1.8h6.9c-0.2,1.5-1,3.1-2.5,4.7    c-2.3,2.5-5.5,3.8-9.7,3.8c-3.4,0-6.5-1.1-9.1-3.2c-2.6-2.1-3.9-5.6-3.9-10.3c0-4.5,1.2-7.9,3.6-10.3c2.4-2.4,5.4-3.6,9.2-3.6    C120.3,38.9,122.3,39.4,124.1,40.2z M114.1,46c-1,1-1.6,2.3-1.8,4h11.6c-0.1-1.8-0.7-3.1-1.8-4.1c-1.1-0.9-2.4-1.4-4-1.4    C116.3,44.5,115,45,114.1,46z"/>
		<path class="st0" d="M149.1,39c0.1,0,0.3,0,0.6,0V46c-0.4,0-0.8-0.1-1.1-0.1c-0.3,0-0.6,0-0.8,0c-2.7,0-4.5,0.9-5.5,2.6    c-0.5,1-0.8,2.5-0.8,4.6v12.3h-6.8V39.6h6.4v4.5c1-1.7,1.9-2.9,2.7-3.5c1.3-1.1,2.9-1.6,4.9-1.6C149,39,149.1,39,149.1,39z"/>
		<path class="st0" d="M163.8,49.7c1.3-0.2,2.2-0.4,2.7-0.6c1-0.4,1.5-1,1.5-1.9c0-1.1-0.4-1.8-1.1-2.2c-0.7-0.4-1.8-0.6-3.3-0.6    c-1.6,0-2.8,0.4-3.4,1.2c-0.5,0.6-0.8,1.4-1,2.4h-6.5c0.1-2.3,0.8-4.1,1.9-5.6c1.8-2.3,4.9-3.4,9.2-3.4c2.8,0,5.4,0.6,7.6,1.7    c2.2,1.1,3.3,3.2,3.3,6.3v11.8c0,0.8,0,1.8,0,3c0,0.9,0.2,1.5,0.4,1.8c0.2,0.3,0.6,0.6,1,0.8v1h-7.3c-0.2-0.5-0.3-1-0.4-1.5    s-0.1-1-0.2-1.6c-0.9,1-2,1.9-3.2,2.6c-1.5,0.8-3.1,1.3-5,1.3c-2.3,0-4.3-0.7-5.8-2c-1.5-1.3-2.3-3.2-2.3-5.7    c0-3.2,1.2-5.5,3.7-6.9c1.4-0.8,3.3-1.3,6-1.7L163.8,49.7z M167.9,52.9c-0.4,0.3-0.9,0.5-1.3,0.7c-0.4,0.2-1,0.3-1.8,0.5l-1.5,0.3    c-1.4,0.3-2.5,0.6-3.1,0.9c-1.1,0.6-1.6,1.6-1.6,2.9c0,1.2,0.3,2,1,2.5c0.6,0.5,1.4,0.8,2.4,0.8c1.5,0,2.8-0.4,4.1-1.3    c1.2-0.9,1.9-2.4,1.9-4.7V52.9z"/>
		<path class="st0" d="M195.9,48.9c-0.1-1-0.4-1.8-1-2.6c-0.8-1-1.9-1.6-3.5-1.6c-2.3,0-3.8,1.1-4.7,3.4c-0.4,1.2-0.7,2.8-0.7,4.8    c0,1.9,0.2,3.4,0.7,4.6c0.8,2.1,2.3,3.2,4.6,3.2c1.6,0,2.7-0.4,3.4-1.3c0.7-0.9,1.1-2,1.2-3.3h6.9c-0.2,2.1-0.9,4-2.2,5.8    c-2.1,2.9-5.2,4.4-9.4,4.4c-4.2,0-7.2-1.2-9.2-3.7S179,57,179,53c0-4.4,1.1-7.9,3.2-10.3c2.2-2.5,5.1-3.7,9-3.7    c3.2,0,5.9,0.7,7.9,2.2s3.3,4,3.7,7.7H195.9z"/>
		<path class="st0" d="M205,44.7v-4.8h3.6v-7.2h6.7v7.2h4.2v4.8h-4.2v13.6c0,1.1,0.1,1.7,0.4,2s1.1,0.4,2.5,0.4c0.2,0,0.4,0,0.7,0    c0.2,0,0.5,0,0.7,0v5l-3.2,0.1c-3.2,0.1-5.4-0.4-6.5-1.7c-0.8-0.8-1.1-2-1.1-3.6V44.7H205z"/>
		<path class="st0" d="M230.7,36.6h-6.8v-6.2h6.8V36.6z M223.9,39.6h6.8v25.8h-6.8V39.6z"/>
		<path class="st0" d="M252.6,39.6h7.2l-9.3,25.8h-7.1l-9.2-25.8h7.6l5.4,19L252.6,39.6z"/>
		<path class="st0" d="M279.6,40.2c1.8,0.8,3.3,2.1,4.5,3.8c1.1,1.5,1.7,3.3,2.1,5.3c0.2,1.2,0.3,2.9,0.2,5.1h-18.8    c0.1,2.6,1,4.4,2.7,5.4c1,0.6,2.3,1,3.7,1c1.5,0,2.8-0.4,3.7-1.2c0.5-0.4,1-1,1.4-1.8h6.9c-0.2,1.5-1,3.1-2.5,4.7    c-2.3,2.5-5.5,3.8-9.7,3.8c-3.4,0-6.5-1.1-9.1-3.2c-2.6-2.1-3.9-5.6-3.9-10.3c0-4.5,1.2-7.9,3.6-10.3c2.4-2.4,5.4-3.6,9.2-3.6    C275.7,38.9,277.8,39.4,279.6,40.2z M269.5,46c-1,1-1.6,2.3-1.8,4h11.6c-0.1-1.8-0.7-3.1-1.8-4.1c-1.1-0.9-2.4-1.4-4-1.4    C271.8,44.5,270.4,45,269.5,46z"/>
		<path class="st0" d="M290.8,30.7h15c4.1,0,7,1.2,8.7,3.6c1,1.4,1.5,3.1,1.5,5c0,2.2-0.6,4-1.9,5.4c-0.6,0.7-1.6,1.4-2.8,2    c1.8,0.7,3.1,1.4,4,2.3c1.6,1.5,2.3,3.6,2.3,6.3c0,2.2-0.7,4.3-2.1,6.1c-2.1,2.7-5.5,4.1-10.1,4.1h-14.8V30.7z M304.1,45.4    c2,0,3.6-0.3,4.7-0.8c1.8-0.9,2.6-2.4,2.6-4.7c0-2.3-0.9-3.8-2.8-4.6c-1.1-0.4-2.6-0.7-4.7-0.7h-8.5v10.8H304.1z M305.6,61.4    c2.9,0,5-0.8,6.2-2.5c0.8-1.1,1.2-2.3,1.2-3.8c0-2.5-1.1-4.2-3.4-5.2c-1.2-0.5-2.8-0.7-4.8-0.7h-9.4v12.2H305.6z"/>
		<path class="st0" d="M322.7,40.1h4v4.4c0.3-0.9,1.1-1.9,2.4-3.1c1.3-1.2,2.8-1.8,4.5-1.8c0.1,0,0.2,0,0.4,0c0.2,0,0.5,0,1,0.1v4.5    c-0.3,0-0.5-0.1-0.7-0.1c-0.2,0-0.4,0-0.7,0c-2.1,0-3.8,0.7-4.9,2.1c-1.2,1.4-1.7,3-1.7,4.8v14.6h-4.3V40.1z"/>
		<path class="st0" d="M356.8,42.6c2.2,2.2,3.4,5.4,3.4,9.6c0,4.1-1,7.5-3,10.1c-2,2.7-5,4-9.2,4c-3.5,0-6.2-1.2-8.2-3.5    c-2-2.4-3.1-5.5-3.1-9.5c0-4.3,1.1-7.6,3.2-10.2c2.1-2.5,5-3.8,8.6-3.8C351.8,39.4,354.6,40.4,356.8,42.6z M354.2,59.5    c1-2.1,1.6-4.5,1.6-7.1c0-2.4-0.4-4.3-1.1-5.8c-1.2-2.3-3.2-3.5-6.1-3.5c-2.6,0-4.4,1-5.6,3c-1.2,2-1.8,4.4-1.8,7.2    c0,2.7,0.6,4.9,1.8,6.7c1.2,1.8,3,2.7,5.6,2.7C351.2,62.7,353.1,61.6,354.2,59.5z"/>
		<path class="st0" d="M365,30.7h4.1v20.2L380,40.1h5.4l-9.7,9.4L386,65.4h-5.4l-8-12.9l-3.5,3.4v9.5H365V30.7z"/>
		<path class="st0" d="M403.7,40.8c1.7,0.8,3,1.9,3.8,3.3c0.8,1.3,1.4,2.8,1.7,4.5c0.3,1.2,0.4,3,0.4,5.6h-18.4    c0.1,2.6,0.7,4.6,1.8,6.2c1.1,1.6,2.9,2.3,5.2,2.3c2.2,0,4-0.7,5.3-2.2c0.7-0.9,1.3-1.8,1.6-3h4.2c-0.1,0.9-0.5,2-1.1,3.1    c-0.6,1.1-1.3,2.1-2.1,2.8c-1.3,1.3-2.9,2.1-4.8,2.6c-1,0.3-2.2,0.4-3.5,0.4c-3.1,0-5.8-1.1-8-3.4c-2.2-2.3-3.3-5.5-3.3-9.6    c0-4.1,1.1-7.4,3.3-9.9c2.2-2.5,5.1-3.8,8.6-3.8C400.3,39.5,402,39.9,403.7,40.8z M405.2,50.7c-0.2-1.8-0.6-3.3-1.2-4.4    c-1.2-2.1-3.1-3.1-5.8-3.1c-1.9,0-3.6,0.7-4.9,2.1c-1.3,1.4-2,3.2-2.1,5.4H405.2z"/>
		<path class="st0" d="M414.6,40.1h4v4.4c0.3-0.9,1.1-1.9,2.4-3.1c1.3-1.2,2.8-1.8,4.5-1.8c0.1,0,0.2,0,0.4,0c0.2,0,0.5,0,1,0.1v4.5    c-0.3,0-0.5-0.1-0.7-0.1c-0.2,0-0.4,0-0.7,0c-2.1,0-3.8,0.7-4.9,2.1c-1.2,1.4-1.7,3-1.7,4.8v14.6h-4.3V40.1z"/>
		<path class="st0" d="M433.2,57.5c0.1,1.4,0.5,2.5,1.1,3.3c1.1,1.4,3,2.1,5.7,2.1c1.6,0,3-0.3,4.3-1c1.2-0.7,1.8-1.7,1.8-3.2    c0-1.1-0.5-1.9-1.5-2.5c-0.6-0.3-1.9-0.7-3.7-1.2l-3.4-0.9c-2.2-0.5-3.8-1.1-4.9-1.8c-1.9-1.2-2.8-2.7-2.8-4.8    c0-2.4,0.9-4.3,2.6-5.8c1.7-1.5,4.1-2.2,7.1-2.2c3.9,0,6.7,1.1,8.4,3.4c1.1,1.4,1.6,3,1.6,4.6h-4c-0.1-1-0.4-1.8-1-2.6    c-1-1.1-2.7-1.7-5.2-1.7c-1.6,0-2.9,0.3-3.7,0.9c-0.8,0.6-1.3,1.4-1.3,2.4c0,1.1,0.6,2,1.7,2.6c0.6,0.4,1.6,0.7,2.8,1l2.9,0.7    c3.1,0.7,5.2,1.5,6.3,2.2c1.7,1.1,2.5,2.8,2.5,5.1c0,2.3-0.9,4.2-2.6,5.8c-1.7,1.6-4.4,2.5-7.9,2.5c-3.8,0-6.5-0.9-8.1-2.6    c-1.6-1.7-2.4-3.8-2.6-6.4H433.2z"/>
	</g>
	<g>
		
			<linearGradient id="SVGID_1_" gradientUnits="userSpaceOnUse" x1="3864.7375" y1="49.783" x2="3893.1445" y2="49.783" gradientTransform="matrix(-1 0 0 1 3894.2446 0)">
			<stop offset="0" style="stop-color:#D81222"/>
			<stop offset="1" style="stop-color:#960B1A"/>
		</linearGradient>
		<polygon class="st1" points="29.5,65.4 1.1,65.4 1.1,34.1   "/>
		<circle class="st2" cx="25.5" cy="41.8" r="8.5"/>
		<polygon class="st2" points="29.5,1.2 1.1,34.1 1.1,65.4   "/>
	</g>
</g>
</svg>