<?xml version="1.0" encoding="UTF-8"?>
<svg width="297.77mm" height="79.427mm" version="1.1" viewBox="0 0 1125.4 300.2" xml:space="preserve" xmlns="http://www.w3.org/2000/svg">
<style type="text/css">
	.st0{fill:#0626A9;}
	.st1{fill:#1226AA;}
	.st2{fill:#011B2B;}
</style>
<g transform="matrix(1.4137 0 0 1.4137 -144.2 -101.72)">
	<path class="st0" d="m861.4 249.4c-0.4 0-0.8-0.1-1.1-0.4l-144.4-144.5c-0.6-0.6-0.6-1.5 0-2.1s1.5-0.6 2.1 0l144.5 144.5c0.6 0.6 0.6 1.5 0 2.1-0.3 0.2-0.7 0.4-1.1 0.4z"/>


	<path class="st0" d="m717.1 249.5c-0.4 0-0.8-0.1-1.1-0.4-0.6-0.6-0.6-1.5 0-2.1l144.5-144.4c0.6-0.6 1.5-0.6 2.1 0s0.6 1.5 0 2.1l-144.4 144.4c-0.3 0.3-0.7 0.4-1.1 0.4z"/>


	<path class="st0" d="m789.5 279.4c-0.8 0-1.5-0.7-1.5-1.5v-204.4c0-0.8 0.7-1.5 1.5-1.5s1.5 0.7 1.5 1.5v204.4c0 0.8-0.7 1.5-1.5 1.5z"/>


	<path class="st0" d="m891.7 177.2h-204.5c-0.8 0-1.5-0.7-1.5-1.5s0.7-1.5 1.5-1.5h204.4c0.8 0 1.5 0.7 1.5 1.5s-0.6 1.5-1.4 1.5z"/>


	<path class="st0" d="m877.8 126.1h-177.5c-0.8 0-1.5-0.7-1.5-1.5s0.7-1.5 1.5-1.5h177.5c0.8 0 1.5 0.7 1.5 1.5s-0.7 1.5-1.5 1.5z"/>


	<path class="st0" d="m877.6 228.3h-177.3c-0.8 0-1.5-0.7-1.5-1.5s0.7-1.5 1.5-1.5h177.3c0.8 0 1.5 0.7 1.5 1.5s-0.6 1.5-1.5 1.5z"/>


	<path class="st0" d="m789.5 279.4c-0.8 0-1.5-0.7-1.5-1.5v-204.4c0-0.8 0.7-1.5 1.5-1.5s1.5 0.7 1.5 1.5v204.4c0 0.8-0.7 1.5-1.5 1.5z"/>


	<path class="st0" d="m738.4 265.4c-0.8 0-1.5-0.7-1.5-1.5v-176.9c0-0.8 0.7-1.5 1.5-1.5s1.5 0.7 1.5 1.5v176.9c0 0.9-0.7 1.5-1.5 1.5z"/>


	<path class="st0" d="m840.6 265.4c-0.8 0-1.5-0.7-1.5-1.5v-176.6c0-0.8 0.7-1.5 1.5-1.5s1.5 0.7 1.5 1.5v176.6c0 0.9-0.7 1.5-1.5 1.5z"/>


	<path class="st0" d="m891.7 177.2c-0.4 0-0.8-0.1-1.1-0.4l-102.2-102.3c-0.6-0.6-0.6-1.5 0-2.1s1.5-0.6 2.1 0l102.2 102.2c0.6 0.6 0.6 1.5 0 2.1-0.3 0.3-0.6 0.5-1 0.5z"/>


	<path class="st0" d="m789.5 279.4c-0.4 0-0.8-0.1-1.1-0.4l-102.2-102.2c-0.6-0.6-0.6-1.5 0-2.1s1.5-0.6 2.1 0l102.2 102.2c0.6 0.6 0.6 1.5 0 2.1-0.3 0.3-0.7 0.4-1 0.4z"/>


	<path class="st0" d="m789.5 279.4c-0.4 0-0.8-0.1-1.1-0.4-0.6-0.6-0.6-1.5 0-2.1l102.2-102.2c0.6-0.6 1.5-0.6 2.1 0s0.6 1.5 0 2.1l-102.2 102.2c-0.3 0.3-0.7 0.4-1 0.4z"/>


	<path class="st0" d="m687.2 177.2c-0.4 0-0.8-0.1-1.1-0.4-0.6-0.6-0.6-1.5 0-2.1l102.3-102.3c0.6-0.6 1.5-0.6 2.1 0s0.6 1.5 0 2.1l-102.2 102.3c-0.3 0.2-0.7 0.4-1.1 0.4z"/>


	<path class="st0" d="m789.2 279.3c-57.2 0-103.7-46.5-103.7-103.6 0-57.2 46.5-103.6 103.7-103.6s103.7 46.5 103.7 103.6-46.5 103.6-103.7 103.6zm0-204.3c-55.5 0-100.7 45.2-100.7 100.6 0 55.5 45.2 100.6 100.7 100.6s100.7-45.1 100.7-100.6-45.2-100.6-100.7-100.6z"/>


	<path class="st0" d="m798 175.6c0 4.8-3.9 8.7-8.7 8.7s-8.7-3.9-8.7-8.7 3.9-8.7 8.7-8.7c4.9 0.1 8.7 3.9 8.7 8.7"/>


	<path class="st0" d="m795.9 226.8c0 3.6-2.9 6.4-6.4 6.4s-6.4-2.9-6.4-6.4 2.9-6.4 6.4-6.4 6.4 2.8 6.4 6.4"/>


	<path class="st0" d="m744.8 124.6c0 3.5-2.9 6.4-6.4 6.4s-6.4-2.9-6.4-6.4c0-3.6 2.9-6.4 6.4-6.4s6.4 2.8 6.4 6.4"/>


	<path class="st0" d="m747 226.8c0 4.8-3.9 8.7-8.7 8.7s-8.7-3.9-8.7-8.7 3.9-8.7 8.7-8.7c4.9 0 8.7 3.9 8.7 8.7"/>


	<path class="st0" d="m898.1 175.7c0 3.5-2.9 6.4-6.4 6.4s-6.4-2.9-6.4-6.4c0-3.6 2.9-6.4 6.4-6.4s6.4 2.8 6.4 6.4"/>


	<path class="st1" d="m795.9 277.9c0 3.5-2.9 6.4-6.4 6.4s-6.4-2.9-6.4-6.4 2.9-6.4 6.4-6.4 6.4 2.9 6.4 6.4"/>


	<path class="st0" d="m849.2 263.9c0 4.8-3.9 8.7-8.7 8.7s-8.7-3.9-8.7-8.7 3.9-8.7 8.7-8.7c4.9 0.1 8.7 3.9 8.7 8.7"/>


	<path class="st0" d="m706.7 226.8c0 3.6-2.9 6.4-6.4 6.4s-6.4-2.9-6.4-6.4 2.9-6.4 6.4-6.4 6.4 2.8 6.4 6.4"/>


	<path class="st0" d="m849.2 87.3c0 4.8-3.9 8.7-8.7 8.7s-8.7-3.9-8.7-8.7 3.9-8.7 8.7-8.7c4.9 0 8.7 3.9 8.7 8.7"/>


	<path class="st0" d="m708.9 124.7c0 4.8-3.9 8.7-8.7 8.7s-8.7-3.9-8.7-8.7 3.9-8.7 8.7-8.7c4.9 0.1 8.7 4 8.7 8.7"/>


	<path class="st0" d="m884.2 124.6c0 3.5-2.9 6.4-6.4 6.4s-6.4-2.9-6.4-6.4c0-3.6 2.9-6.4 6.4-6.4s6.4 2.8 6.4 6.4"/>


	<path class="st0" d="m847 175.8c0 3.6-2.9 6.4-6.4 6.4s-6.4-2.9-6.4-6.4 2.9-6.4 6.4-6.4 6.4 2.8 6.4 6.4"/>


	<path class="st0" d="m723.4 103.4c0 3.5-2.9 6.4-6.4 6.4s-6.4-2.9-6.4-6.4 2.9-6.4 6.4-6.4 6.4 2.9 6.4 6.4"/>
</g><g stroke-width="1.4137">
<path class="st2" d="m193.11 44.885h-34.777c-0.8482 0-1.555 0.42411-1.8378 1.131l-58.668 108.85-59.234-108.85c-0.42411-0.70685-1.131-1.131-1.8378-1.131h-34.635c-1.131 0-2.1205 0.98958-2.1205 2.1205v204.84c0 1.131 0.98958 2.1205 2.1205 2.1205h33.222c1.131 0 2.1205-0.98959 2.1205-2.1205v-133.74l52.165 91.042c0.42411 0.70684 1.131 1.131 1.8378 1.131h12.158c0.70684 0 1.4137-0.42411 1.8378-1.131l51.882-91.324v133.88c0 1.1309 0.98957 2.1205 2.1205 2.1205h33.504c0.56547 0 1.1309-0.28274 1.5551-0.56547 0.4241-0.42412 0.56547-0.98959 0.56547-1.5551v-204.7c0.14137-1.2723-0.84821-2.1205-1.9792-2.1205z"/>
<path class="st2" d="m714.2 44.319h-31.243c-1.131 0-2.1205 0.98958-2.1205 2.1205v205.97c0 1.131 0.98957 2.1205 2.1205 2.1205h31.243c1.131 0 2.1205-0.98959 2.1205-2.1205v-205.97c0-1.2723-0.8482-2.1205-2.1205-2.1205z"/>
<path class="st2" d="m628.39 215.94-22.619-22.902c-0.84821-0.84822-2.1205-0.84822-2.9687 0-16.682 15.551-31.808 25.164-56.124 25.164-36.473 0-64.04-29.546-64.04-68.847v-0.56548c0-18.661 6.503-35.908 18.237-48.631 11.875-12.865 28.132-19.933 45.804-19.933 19.65 0 36.473 7.4926 54.71 24.315 0.4241 0.4241 0.98957 0.56547 1.555 0.56547s1.131-0.28273 1.5551-0.70685l22.619-26.012c0.70684-0.84822 0.70684-2.1205-0.14137-2.9688-16.399-15.692-38.877-31.808-79.874-31.808-60.082 0-105.46 45.521-105.46 105.74v0.56548c0 28.557 10.603 54.993 29.688 74.643 19.368 19.792 45.662 30.536 74.36 30.536 23.75 0 52.165-4.2411 82.842-36.19 0.70685-0.84821 0.70685-2.1205-0.14136-2.9688z"/>
<path class="st2" d="m381.41 149.5c-9.7545-7.7753-22.478-12.865-40.856-16.54-0.14136 0-0.56548-0.14138-0.98958-0.28275-0.28274 0-0.56547-0.14136-0.84822-0.14136-1.8378-0.42411-5.9375-1.2723-10.179-2.1205-4.5238-0.84821-9.3304-1.8378-10.744-2.2619-11.168-3.1101-17.813-6.0789-21.771-9.8958-3.817-3.5342-5.6548-8.1994-5.9375-14.278v-0.56547-1.6964c0.56548-13.006 10.744-22.195 26.719-24.174 3.9583-0.4241 7.7753-0.56548 11.592-0.28274 16.116 1.131 29.829 6.6444 42.269 16.682 0.56548 0.56547 1.6964 0.70684 2.4033 0.4241h0.14137c0.56548 0 1.131-0.28273 1.5551-0.70685l18.943-22.478c0.70683-0.8482 0.70683-2.2619-0.28275-2.9687-19.792-17.106-41.28-24.74-69.695-24.74-42.269 0-70.685 24.598-70.685 61.354v0.70684c0 16.964 5.0893 29.829 15.268 39.442 9.189 8.6235 22.619 14.702 40.856 18.519 1.131 0.28273 3.9583 0.84821 6.7857 1.4137 1.9792 0.4241 3.817 0.70684 4.6652 0.98957 1.2723 0.28275 4.0997 0.84822 6.7857 1.2723 2.5446 0.42412 5.0893 0.98959 5.9375 1.131 10.179 2.5446 16.823 4.5238 21.771 8.4821 5.6548 4.3824 8.058 9.8958 8.1994 17.954v0.56547c0 14.561-11.451 24.174-30.536 25.729-2.1205 0.14137-4.3824 0.28274-6.6443 0.28274-1.9792 0-3.9583 0-5.9375-0.14137-19.792-1.4137-35.201-8.058-49.762-21.488-0.56548-0.56548-1.4137-0.70685-1.9792-0.56548h-0.14137c-0.56547 0-1.131 0.28273-1.555 0.70685l-20.64 22.478c-0.8482 0.84821-0.70684 2.1205 0.14137 2.9688 21.488 20.357 47.5 30.112 79.591 30.112 45.521 0 74.784-24.457 74.784-62.202v-0.56548c0.14138-18.519-6.3616-33.08-19.226-43.118z"/>
<path class="st0" d="m908.72 21.7c0 4.9479-4.0997 9.0476-9.0476 9.0476-4.9479 0-9.0476-4.0997-9.0476-9.0476 0-5.0893 4.0997-9.0476 9.0476-9.0476 4.9479 0 9.0476 4.0997 9.0476 9.0476"/>
</g></svg>